<?xml version="1.0" encoding="utf-8"?>
<!-- Generator: Adobe Illustrator 26.0.2, SVG Export Plug-In . SVG Version: 6.00 Build 0)  -->
<svg version="1.1" id="Layer_1" xmlns="http://www.w3.org/2000/svg" xmlns:xlink="http://www.w3.org/1999/xlink" x="0px" y="0px"
	 viewBox="0 0 64 64" style="enable-background:new 0 0 64 64;" xml:space="preserve">
<style type="text/css">
	.st0{fill:#58595B;}
	.st1{fill:#E6E7E8;stroke:#E8E8E8;stroke-miterlimit:10;}
</style>
<g>
	<path class="st0" d="M51.6,64H12.4C5.6,64,0,58.4,0,51.6V12.4C0,5.6,5.6,0,12.4,0h39.1C58.4,0,64,5.6,64,12.4v39.1
		C64,58.4,58.4,64,51.6,64z"/>
</g>
<g>
	<path class="st1" d="M16.8,28.9c1.5-0.1,2.7-0.2,3.9-0.2c3.4,0,6.2,0.8,8,2.3c1.8,1.5,2.8,3.7,2.8,6.6c0,2.8-1,5.1-2.8,6.7
		c-1.8,1.6-4.4,2.4-7.6,2.4h-8.4V17.3h16.6v3.5H16.8V28.9z M16.8,43.3c1.8,0.2,3,0.2,3.3,0.2c4.7,0,7-2,7-6c0-3.7-2.3-5.5-6.9-5.5
		c-1.2,0-2.4,0.1-3.6,0.2C16.8,32.2,16.8,43.3,16.8,43.3z"/>
	<path class="st1" d="M53.2,20.9H40.1v25.7h-4V17.3h17.1V20.9z"/>
</g>
</svg>
