<?xml version="1.0" encoding="utf-8"?>
<!-- Generator: Adobe Illustrator 26.0.2, SVG Export Plug-In . SVG Version: 6.00 Build 0)  -->
<svg version="1.1" id="Layer_1" xmlns="http://www.w3.org/2000/svg" xmlns:xlink="http://www.w3.org/1999/xlink" x="0px" y="0px"
	 viewBox="0 0 64 64" style="enable-background:new 0 0 64 64;" xml:space="preserve">
<style type="text/css">
	.st0{fill:#DADBDC;}
	.st1{fill:#E6E7E8;stroke:#E8E8E8;stroke-miterlimit:10;}
</style>
<g>
	<path d="M13.7,63C6.7,63,1,57.3,1,50.3V13.7C1,6.7,6.7,1,13.7,1h36.6C57.3,1,63,6.7,63,13.7v36.6c0,7-5.7,12.7-12.7,12.7H13.7z"/>
	<path class="st0" d="M50.3,2C56.7,2,62,7.3,62,13.7v36.6C62,56.7,56.7,62,50.3,62H13.7C7.3,62,2,56.7,2,50.3V13.7
		C2,7.3,7.3,2,13.7,2H50.3 M50.3,0H13.7C6.1,0,0,6.1,0,13.7v36.6C0,57.9,6.1,64,13.7,64h36.6C57.9,64,64,57.9,64,50.3V13.7
		C64,6.1,57.9,0,50.3,0L50.3,0z"/>
</g>
<g>
	<path class="st1" d="M15.8,28.9c1.5-0.1,2.7-0.2,3.9-0.2c3.4,0,6.2,0.8,8,2.3c1.8,1.5,2.8,3.7,2.8,6.6c0,2.8-1,5.1-2.8,6.7
		c-1.8,1.6-4.4,2.4-7.6,2.4h-8.4V17.3h16.6v3.5H15.8V28.9z M15.8,43.3c1.8,0.2,3,0.2,3.3,0.2c4.7,0,7-2,7-6c0-3.7-2.3-5.5-6.9-5.5
		c-1.2,0-2.4,0.1-3.6,0.2C15.8,32.2,15.8,43.3,15.8,43.3z"/>
	<path class="st1" d="M52.2,20.9H39.1v25.7h-4V17.3h17.1C52.2,17.3,52.2,20.9,52.2,20.9z"/>
</g>
</svg>
